<?xml version="1.0" encoding="UTF-8"?>
<svg width="120" height="90"  id="Layer_1" data-name="Layer 1" xmlns="http://www.w3.org/2000/svg" version="1.1" viewBox="0 0 291.81 57.94">
  <defs>
    <style>
      .cls-1 {
        fill: #e33126;
        stroke-width: 0px;
      }
    </style>
  </defs>
  <polygon class="cls-1" points="210.1 14.17 210.1 .98 153.34 .98 153.34 .99 153.34 56.95 210.1 56.95 210.1 43.46 172.47 43.46 172.47 34.11 201.97 34.11 201.97 22.85 172.47 22.85 172.47 14.17 210.1 14.17"/>
  <path class="cls-1" d="M107.82,38.14h-1.55L89.99.98h-21.99l25.7,55.98,25.15-.07h0c.32,0,.63-.21.78-.54L143.25.99h-20.18l-15.26,37.16h0Z"/>
  <polygon class="cls-1" points="271.41 1.01 271.41 32.78 241.23 1.03 220.19 1.03 220.19 56.92 239.44 56.92 239.44 22.99 271.96 56.92 290.66 56.92 290.66 1.01 271.41 1.01"/>
  <polygon class="cls-1" points="1.15 .99 1.15 56.95 57.91 56.95 57.91 43.46 20.28 43.46 20.28 34.11 49.78 34.11 49.78 22.85 20.28 22.85 20.28 14.17 57.91 14.17 57.91 .98 1.15 .98 1.15 .99"/>
</svg>